<svg role="img" viewBox="0 0 24 24" xmlns="http://www.w3.org/2000/svg">
<title>Twitter</title>
<path d="M23.954 4.57a10 10 0 0 1-2.825.775A4.958 4.958 0 0 0 23.337 2.36a10.2 10.2 0 0 1-3.203 1.216 5.077 5.077 0 0 0-8.812 4.564A14.394 14.394 0 0 1 1.671 3.149a5.081 5.081 0 0 0 1.574 6.779 4.933 4.933 0 0 1-2.29-.633v.067a5.133 5.133 0 0 0 4.066 4.946 4.996 4.996 0 0 1-2.285.086A5.07 5.07 0 0 0 7.95 18a10.28 10.28 0 0 1-6.188 2.136c-.4 0-.79-.024-1.17-.071A14.408 14.408 0 0 0 7.927 22c9.4 0 14.548-7.8 14.548-14.548l-.017-.662A10.354 10.354 0 0 0 24 4.59z"></path>
</svg>
